<svg id="Layer_1" data-name="Layer 1" xmlns="http://www.w3.org/2000/svg" viewBox="0 0 2560 1496"><defs><style>.cls-1{fill:#469846;}</style></defs><path class="cls-1" d="M857.35,667q.17,63.65-25.28,116.28-21.45,44.43-60.94,81-10.25,9.48-21,17.83-3.3,2.55-6.64,5-78,57-184.45,57a397.61,397.61,0,0,1-62.5-4.82l-1.05-.17q-122.94-19.84-214.21-119-114.17-124-114.15-302.08,0-178.65,116.19-297.36T573.65,102h1.19c72.29.31,130.6,59.3,130.6,131.59V365.08Q649,338.62,602.53,338.64q-84.1,0-137.33,52.27Q416,439.21,412.3,514.06c-6.1-2.3-11.38-3.38-20.18-8.56-31.94-18.78-34.89-47.27-37-46.53-2.84,1-1.71,53.78,38.23,70,4.41,1.78,11.75,4.13,18.81,9.66a222.71,222.71,0,0,0,4,35.9c-23.08-2.64-74-27.37-95.53-62.17-9.76-15.77-10.81-27.34-11.87-27-2.3.7,6.13,53.63,42.61,95.92,16,18.61,36.93,25.22,46.15,27.34,11.13,2.56,20.44,1.64,29.42,1.54a161.12,161.12,0,0,0,24.36,40.37c-13,4.85-31.15,7.26-46.24,6-43.22-3.59-59.3-37.07-62.27-35.37-3.4,1.94,13,48.45,66.65,61.28,14.81,3.55,28.11,3.48,50.05,3.36,11.73-.06,22.39-.11,31.85-.4,23.46,14.46,47.46,21.12,66.64,24.12,2.2.34,4.32.64,6.38.89a116.87,116.87,0,0,0,61.42-8.77c12.35-5.45,22-12.42,22.87-21.18,1.44-15.36-3.52-19-30.36-34.7a155.13,155.13,0,0,0-1.62-15.89c-2.35-16.83-8.94-29.52-9.38-29.37s4.35,9.25,4.38,21.87a65.23,65.23,0,0,1-2.35,18.15c-9-5.28-19.91-11.73-33.11-19.93.61-2.06,1.2-4.17,1.7-6.34,9.09-39.46-16.1-78.19-18.75-77.51-1.54.39,2.2,14.77,3.13,46.25.42,14.13,0,22.74-1,28.22-11.07-7.09-23.49-15.25-37.39-24.73a87.46,87.46,0,0,1-13.65-11.39,88.19,88.19,0,0,0,8.23-15.22,108.54,108.54,0,0,0,8.13-43.13c-.19-9.17-1.76-23-4.38-23.13-3.16-.17-4.52,19.88-15,50.63a151.51,151.51,0,0,1-7.09,17.85c-39.34-64.44,40.67-163.87,42.08-153.93,24.14,170.94,165.15,64.7,220.2,96.58a168.51,168.51,0,0,1,44.85,28.16,147.06,147.06,0,0,1,30.05,36.49C856.94,603.16,857.26,635.18,857.35,667Z"/><path class="cls-1" d="M1202.43,1116.88c.21,78.29-28.74,144-86.22,197.28S988,1394,904.09,1394q-163.62,0-277.77-124-106-115.15-113.57-276.92a396.45,396.45,0,0,0,62.51,4.82q106.41,0,184.45-57a231.91,231.91,0,0,0-2.64,35.57c0,10.71.13,29.25,4.74,50.87-9.37-1.2-14.6.48-27.09-2.17-36.25-7.7-48.07-33.78-49.85-32.41-2.38,1.84,15.42,51.55,58.46,54.28,5.39.34,14.59.16,24.35,4.61.43.18.84.38,1.26.59A166.22,166.22,0,0,0,783.23,1082c-19.46,6.7-80.72.18-114.17-27.65-14.27-11.87-18.93-22.5-19.83-21.85-2,1.39,22.81,48.91,70.81,77.47,21.11,12.55,43,12.2,52.44,11.3,13.88-1.35,23.54-6.73,34-9.66a162,162,0,0,0,35.92,27.2c-10,10.6-30,21.22-47.61,25.51-42.13,10.3-68-16.36-70.27-13.81-2.6,2.92,27.72,41.83,82.63,37,15.17-1.34,27.77-5.61,48.55-12.67,17.49-5.94,32.48-11,44.18-16,3.3.56,6.47,1,9.49,1.4a117,117,0,0,0,61.43-8.77c12.35-5.45,22-12.42,22.87-21.19,1.56-16.56-4.35-19.48-37.13-38.64a14.17,14.17,0,0,0,1.21-2.28c2.35-5.58,1.18-12.57-.88-19-1.26-4-2.86-7.74-4.2-10.87-4.84-11.42-11.55-19.16-11.79-19s4.59,5.73,7.13,14.6a52.91,52.91,0,0,1,2.15,13.19c0,4.9-1,9.9-4.63,12.7a10.93,10.93,0,0,1-3.94,1.86c-4.8-2.86-10-6-15.67-9.49-.83-3.77-.63-8.26-.7-13.14,0-1.55-.07-3.15-.19-4.77-2.13-29.38-25.79-52.1-27.34-51.15-.9.56,4.34,10,11.22,32,3.09,9.86,4.54,16,5,20,.54,4.45-.08,6.33-1,7.81a7.81,7.81,0,0,1-.55.82c-11.14-7-23.74-15.24-38-24.86a68.82,68.82,0,0,0,2.17-12.19,87.43,87.43,0,0,0-3.47-31.79c-2-6.42-5.71-15.86-7.39-15.48-2,.45,1.1,14.79.62,38.3a118.69,118.69,0,0,1-.93,13.83c0,.35-.08.68-.12,1-80.18-60.29,20.39-186.87,22-175.72,24.14,171,165.14,64.71,220.19,96.58,15.84,6.79,51.83,24.88,74.9,64.66C1202,1053,1202.34,1085,1202.43,1116.88Z"/><path class="cls-1" d="M1083.85,653.63V786.29q-56.49-26.43-102.92-26.44-56.34,0-98.82,23.47Q907.5,730.7,907.38,667c-.09-31.86-.41-63.88-20-97.66a146.87,146.87,0,0,0-30.06-36.49,449.77,449.77,0,0,1,94.74-9.68h2.36A130.46,130.46,0,0,1,1083.85,653.63Z"/><path class="cls-1" d="M1368.13,449.4c0,78-54.31,125.39-125.75,125.39-80.19,0-137.78-59-137.78-132.32,0-74,58.68-133,133.77-133,48.84,0,90,24.06,111.53,58.32l-49.57,28.43c-10.57-16.76-33.53-29.89-62.33-29.89-43,0-75.08,31.72-75.08,76.55,0,43.37,30.62,75.09,80.19,75.09,33.9,0,56.13-14.95,65.24-39.37h-68.16v-51h127.94Z"/><path class="cls-1" d="M1487,485.85h-27.71v83.83h-58.32V314.53H1503A87.27,87.27,0,0,1,1590.47,402c0,31.35-19,59.78-47,74l54.31,93.67h-62.69Zm-27.71-51H1503c16,0,29.16-14.22,29.16-32.81s-13.12-32.8-29.16-32.8h-43.74Z"/><path class="cls-1" d="M1785.48,513.55v56.13H1625.1V314.53h158.56v56.14H1683.42V413h91.12v55.4h-91.12v45.2Z"/><path class="cls-1" d="M1978.66,513.55v56.13H1818.28V314.53h158.56v56.14H1876.6V413h91.13v55.4H1876.6v45.2Z"/><path class="cls-1" d="M2211.94,314.53V569.68H2168.2l-98.41-138.51V569.68h-58.32V314.53h43.74L2153.62,453V314.53Z"/><path class="cls-1" d="M1465.71,795.65c0,78-54.31,125.38-125.75,125.38-80.19,0-137.79-59-137.79-132.31,0-74,58.69-133,133.77-133,48.85,0,90,24.06,111.54,58.32l-49.57,28.43c-10.57-16.77-33.54-29.89-62.33-29.89-43,0-75.09,31.71-75.09,76.54,0,43.38,30.62,75.09,80.19,75.09,33.9,0,56.14-14.94,65.25-39.36h-68.16v-51h127.94Z"/><path class="cls-1" d="M1556.83,660.78V915.93h-58.32V660.78Z"/><path class="cls-1" d="M1578.7,660.78h63.79L1699,848.5l56.5-187.72h63.79l-83.11,255.15h-74.35Z"/><path class="cls-1" d="M2001.51,859.8v56.13H1841.14V660.78h158.55v56.13H1899.45V759.2h91.13v55.4h-91.13v45.2Z"/><path class="cls-1" d="M2120.34,832.1h-27.7v83.83h-58.32V660.78h102.06a87.27,87.27,0,0,1,87.48,87.48c0,31.35-19,59.78-47,74l54.31,93.68h-62.69Zm-27.7-51h43.74c16,0,29.16-14.21,29.16-32.8s-13.12-32.8-29.16-32.8h-43.74Z"/><path class="cls-1" d="M2242.09,858l50.3-29.16c9.11,21.14,24.78,35.36,53.58,35.36,27.7,0,34.63-10.93,34.63-20.77,0-15.68-14.59-21.88-52.86-32.45-37.91-10.57-75.08-28.79-75.08-77.63,0-49.21,41.55-77.64,85.65-77.64,41.92,0,74.72,20.05,93.31,57.59l-49.2,28.79c-8.75-18.22-20.78-29.52-44.11-29.52-18.22,0-27.33,9.11-27.33,19.32,0,11.66,6.19,19.68,45.92,31.71,38.64,11.66,82,25.15,82,79.1,0,49.2-39.36,78.36-94.77,78.36C2290.56,921,2256.3,895.52,2242.09,858Z"/></svg>