<svg id="Layer_1" data-name="Layer 1" xmlns="http://www.w3.org/2000/svg" viewBox="0 0 2560 2560"><defs><style>.cls-1{fill:#469846;}</style></defs><path class="cls-1" d="M1560.29,1148.51q.29,103.38-41,188.85-34.82,72.17-99,131.55-16.65,15.4-34.18,29-5.36,4.14-10.77,8.1-126.75,92.63-299.56,92.6a644.81,644.81,0,0,1-101.51-7.83l-1.71-.26Q772.9,1558.25,624.66,1397.2,439.25,1195.81,439.27,906.6q0-290.13,188.71-482.93t471.57-192.81h1.93c117.4.49,212.12,96.3,212.12,213.7V658.11q-91.74-43-167.14-42.94-136.59,0-223,84.89-79.89,78.45-85.91,200c-9.91-3.75-18.49-5.51-32.78-13.91-51.88-30.51-56.67-76.78-60.11-75.57-4.62,1.59-2.77,87.34,62.1,113.68,7.15,2.9,19.07,6.72,30.54,15.69a361.23,361.23,0,0,0,6.45,58.3c-37.48-4.28-120.13-44.44-155.14-101-15.86-25.61-17.57-44.39-19.29-43.87-3.74,1.14,10,87.09,69.2,155.77,26,30.22,60,41,75,44.4,18.07,4.16,33.18,2.66,47.77,2.51a262.15,262.15,0,0,0,39.56,65.56c-21.18,7.88-50.58,11.79-75.09,9.75-70.19-5.81-96.31-60.19-101.13-57.43-5.52,3.16,21.17,78.69,108.24,99.52,24.05,5.76,45.66,5.65,81.29,5.46,19-.1,36.36-.19,51.73-.65,38.09,23.48,77.08,34.31,108.22,39.17q5.36.83,10.36,1.45a190,190,0,0,0,99.76-14.24c20-8.85,35.8-20.17,37.14-34.41,2.33-24.94-5.72-30.83-49.32-56.36a247.46,247.46,0,0,0-2.63-25.79c-3.8-27.34-14.51-48-15.22-47.71s7,15,7.1,35.53c0,3.32,0,16.7-3.8,29.47-14.61-8.57-32.35-19.06-53.78-32.38,1-3.33,1.95-6.76,2.77-10.29,14.75-64.07-26.15-127-30.46-125.88-2.51.64,3.58,24,5.08,75.12.68,23,0,36.92-1.54,45.83-18-11.51-38.14-24.77-60.73-40.16a141.91,141.91,0,0,1-22.16-18.51A143.93,143.93,0,0,0,1010,974.44a176.59,176.59,0,0,0,13.19-70c-.31-14.89-2.85-37.34-7.1-37.56-5.15-.27-7.35,32.28-24.36,82.23a246.92,246.92,0,0,1-11.53,29c-63.89-104.65,66.06-266.14,68.34-250,39.22,277.62,268.22,105.09,357.62,156.85A273.73,273.73,0,0,1,1479,930.65a238.69,238.69,0,0,1,48.81,59.25C1559.63,1044.77,1560.15,1096.77,1560.29,1148.51Z"/><path class="cls-1" d="M2120.73,1879.08c.34,127.15-46.68,233.94-140,320.4s-208.17,129.66-344.5,129.66q-265.74,0-451.11-201.37-172.17-187-184.45-449.73a644.9,644.9,0,0,0,101.51,7.83q172.83,0,299.56-92.6a377.57,377.57,0,0,0-4.28,57.76c0,17.39.22,47.51,7.69,82.61-15.21-2-23.7.79-44-3.52-58.86-12.49-78.07-54.86-81-52.63-3.86,3,25,83.73,94.94,88.15,8.75.55,23.7.26,39.55,7.48.69.31,1.37.62,2,1a270.22,270.22,0,0,0,23.22,48.31c-31.6,10.88-131.11.3-185.43-44.9-23.16-19.28-30.73-36.54-32.2-35.48-3.18,2.24,37,79.42,115,125.8,34.28,20.39,69.87,19.83,85.16,18.36,22.54-2.18,38.23-10.93,55.26-15.7a262.94,262.94,0,0,0,58.33,44.19c-16.28,17.21-48.78,34.47-77.31,41.43-68.42,16.73-110.42-26.58-114.12-22.43-4.24,4.75,45,67.93,134.2,60.08,24.64-2.16,45.09-9.1,78.83-20.57,28.41-9.65,52.76-17.94,71.75-25.94,5.37.92,10.52,1.67,15.42,2.27a189.86,189.86,0,0,0,99.76-14.24c20.06-8.85,35.8-20.17,37.15-34.4,2.53-26.9-7.06-31.64-60.3-62.77a22.84,22.84,0,0,0,2-3.69c3.81-9.07,1.91-20.42-1.44-30.92-2-6.45-4.65-12.58-6.81-17.67-7.86-18.54-18.76-31.11-19.15-30.83s7.46,9.31,11.58,23.72a85.47,85.47,0,0,1,3.48,21.42c.09,7.94-1.56,16.06-7.51,20.61a17.6,17.6,0,0,1-6.4,3c-7.79-4.64-16.25-9.76-25.45-15.41-1.35-6.12-1-13.42-1.13-21.35,0-2.52-.11-5.11-.31-7.74-3.46-47.72-41.89-84.61-44.4-83.06-1.46.9,7.05,16.23,18.21,51.92,5,16,7.37,26,8.18,32.5.89,7.23-.13,10.28-1.59,12.69-.28.47-.58.91-.89,1.33-18.1-11.44-38.57-24.76-61.68-40.38a109.16,109.16,0,0,0,3.52-19.79,141.56,141.56,0,0,0-5.63-51.63c-3.18-10.43-9.27-25.76-12-25.15-3.31.73,1.79,24,1,62.21a189.58,189.58,0,0,1-1.5,22.46c-.07.57-.13,1.11-.19,1.64-130.22-97.92,33.1-303.49,35.67-285.38,39.2,277.63,268.21,105.1,357.61,156.85,25.72,11,84.17,40.4,121.64,105C2120.07,1775.35,2120.59,1827.34,2120.73,1879.08Z"/><path class="cls-1" d="M1928.14,1126.74v215.45q-91.73-42.95-167.13-43-91.5,0-160.5,38.11,41.23-85.44,41-188.84c-.14-51.74-.66-103.74-32.5-158.6a238.57,238.57,0,0,0-48.81-59.26q73.08-15.72,153.85-15.72l3.84,0C1834.27,915.91,1928.14,1010.39,1928.14,1126.74Z"/></svg>